<?xml version="1.0" encoding="utf-8" ?>
<svg xmlns="http://www.w3.org/2000/svg" xmlns:xlink="http://www.w3.org/1999/xlink" width="3708" height="3708">
	<path fill="#F4F2F2" fill-opacity="0.0078431377" transform="scale(10.3 10.3)" d="M123.099 321.109C124.576 321.056 126.181 320.866 127.647 321.008C129.251 321.564 131.174 320.921 132.757 321.459C129.789 321.468 125.945 321.883 123.099 321.109Z"/>
	<path fill="#DBD6D5" transform="scale(10.3 10.3)" d="M103.416 299.654L102.904 299.312L103.081 298.791C104.592 298.197 114.565 297.989 116.008 298.65C116.348 298.805 116.549 299.026 116.674 299.382C116.894 300.008 116.827 301.232 116.468 301.793C116.439 301.838 116.399 301.875 116.365 301.915L116.205 301.657C115.714 300.877 115.376 300.326 114.418 300.114C112.109 299.602 109.49 300.423 107.219 299.874C107.161 299.624 107.195 299.498 106.962 299.343C106.285 298.894 105.359 298.819 104.57 298.907C103.835 298.99 103.862 299.106 103.416 299.654Z"/>
	<path fill="#DBD6D5" transform="scale(10.3 10.3)" d="M173.805 309.757C174.145 310.382 174.206 310.642 174.84 310.994C173.402 313.092 171.696 314.974 170.225 317.043C169.631 317.878 168.888 318.818 169.071 319.869C169.436 320.093 169.76 320.293 170.074 320.587C169.928 320.624 169.781 320.66 169.633 320.692C168.173 321.002 165.049 321.421 163.79 320.587C164.654 319.987 165.618 319.492 166.402 318.786C169.236 316.23 171.139 312.542 173.805 309.757Z"/>
	<defs>
		<linearGradient id="gradient_0" gradientUnits="userSpaceOnUse" x1="160.14502" y1="307.82776" x2="157.03957" y2="307.33197">
			<stop offset="0" stop-color="#D6D7D7" stop-opacity="0.95686275"/>
			<stop offset="1" stop-color="#CFCDC6"/>
		</linearGradient>
	</defs>
	<path fill="url(#gradient_0)" transform="scale(10.3 10.3)" d="M155.013 318.943C156.372 318.125 157.163 317.248 157.63 315.716C158.425 313.112 158.716 302.127 157.499 299.799C157.125 299.682 156.769 299.552 156.408 299.399L156.281 298.724L156.453 298.725L156.6 298.565C160.797 298.498 165.738 297.966 169.837 298.745C168.06 298.837 166.509 299.138 164.778 299.476C163.479 299.464 161.312 299.195 160.32 300.159C157.197 303.19 163.894 317.116 154.985 320.433Q155.395 319.877 155.822 319.334L155.013 318.943Z"/>
	<path fill="#F4F2F2" fill-opacity="0.98823529" transform="scale(10.3 10.3)" d="M245.308 302.19Q245.37 303.511 245.398 304.833C245.822 304.059 246.116 303.055 246.623 302.355C246.971 301.874 247.426 301.937 247.952 301.904C248.886 304.214 249.794 306.762 250.295 309.201L249.365 310.01L249.546 310.077C249.955 310.234 250.276 310.317 250.532 310.699C250.474 310.711 250.417 310.726 250.36 310.737C248.81 311.042 245.589 310.003 244.582 311.33C243.467 312.798 241.671 317.528 241.99 319.338C242.018 319.499 242.054 319.562 242.117 319.723L243.315 320.443L243.226 320.745C241.489 321.442 239.095 320.898 237.215 321.112L236.949 320.392C238.007 320.161 238.643 319.748 239.508 319.128C241.259 313.483 243.243 307.724 245.308 302.19ZM244.734 309.265C246.58 309.251 248.453 309.297 250.295 309.201C249.794 306.762 248.886 304.214 247.952 301.904C246.257 304.068 245.69 306.745 244.734 309.265Z"/>
	<path fill="#F4F2F2" transform="scale(10.3 10.3)" d="M245.308 302.19C245.742 301.008 246.343 299.214 247.627 298.708C248.226 298.473 248.592 298.655 249.161 298.838C250.372 300.49 250.977 302.673 251.664 304.584C253.602 309.981 255.197 316.076 258.529 320.772C256.646 320.915 254.273 321.237 252.483 320.625L252.439 320.318C252.957 319.921 253.173 319.867 253.268 319.189C253.509 317.485 251.946 312.43 250.832 311.037C250.684 310.853 250.675 310.849 250.532 310.699C250.276 310.317 249.955 310.234 249.546 310.077L249.365 310.01L250.295 309.201C249.794 306.762 248.886 304.214 247.952 301.904C247.426 301.937 246.971 301.874 246.623 302.355C246.116 303.055 245.822 304.059 245.398 304.833Q245.37 303.511 245.308 302.19Z"/>
	<path fill="#F4F2F2" transform="scale(10.3 10.3)" d="M154.985 320.433C154.685 320.606 154.384 320.739 154.051 320.84C151.189 321.702 146.597 321.33 143.968 319.891C138.853 317.091 140.309 308.897 140.293 303.926C140.29 302.88 140.406 301.539 140.057 300.544C139.789 299.78 139.099 299.476 138.423 299.136L138.214 299.034L138.139 298.685C139.822 298.091 143.656 298.312 145.568 298.225C144.915 298.906 144.162 299.645 143.782 300.518C142.548 303.349 142.73 312.838 143.896 315.674Q144.017 315.974 144.167 316.261Q144.317 316.548 144.495 316.818Q144.674 317.089 144.878 317.34Q145.083 317.591 145.311 317.82Q145.54 318.049 145.791 318.254Q146.042 318.459 146.312 318.638Q146.582 318.817 146.868 318.967Q147.155 319.118 147.455 319.239C149.733 320.168 152.793 319.87 155.013 318.943L155.822 319.334Q155.395 319.877 154.985 320.433Z"/>
	<path fill="#F4F2F2" transform="scale(10.3 10.3)" d="M103.416 299.654C103.862 299.106 103.835 298.99 104.57 298.907C105.359 298.819 106.285 298.894 106.962 299.343C107.195 299.498 107.161 299.624 107.219 299.874C106.614 302.34 107.202 305.463 106.961 308.074C109.215 307.9 111.679 308.446 113.883 308.057C114.832 307.89 115.516 307.107 116.482 306.878C116.882 307.551 116.507 310.694 116.492 311.713C113.484 308.875 110.799 309.948 106.992 309.414C107.024 312.605 106.769 315.913 107.166 319.076L110.352 320.908C107.45 321.233 104.559 321.143 101.652 320.958C102.372 320.384 103.376 319.719 103.703 318.826C104.368 317.01 104.235 301.189 103.416 299.654Z"/>
	<path fill="#F4F2F2" transform="scale(10.3 10.3)" d="M123.099 321.109C122.198 321.067 120.585 321.169 119.86 320.678C121.277 319.508 122.159 319.259 122.359 317.185C122.535 315.368 122.229 313.447 122.209 311.618C122.17 307.935 122.834 303.329 121.932 299.774C121.46 299.503 121.054 299.405 120.521 299.303C120.399 299.06 120.25 298.917 120.308 298.644C122.623 298.464 125.553 298.198 127.816 298.625C127.727 298.653 127.637 298.677 127.549 298.71C126.804 298.987 126.132 299.943 125.848 300.655C124.951 302.904 125.578 315.893 125.702 319.14C128.604 319.396 132.578 320.288 134.996 318.174C135.8 317.472 136.485 316.517 137.162 315.692C136.735 317.321 136.373 319.296 134.85 320.271C132.954 321.486 129.823 320.83 127.647 321.008C126.181 320.866 124.576 321.056 123.099 321.109Z"/>
	<path transform="scale(10.3 10.3)" d="M260.372 122.459C260.549 122.462 260.623 122.455 260.787 122.484C262.862 122.852 271.541 128.629 273.323 130.204Q275.63 132.264 277.376 134.817C281.462 140.723 282.896 149.278 281.648 156.349L281.437 156.397C280.64 155.301 280.405 150.035 280.054 148.399Q279.56 146.113 278.652 143.958C276.15 138.151 271.084 132.72 266.556 128.417C264.561 126.521 262.324 124.707 260.521 122.633C260.471 122.575 260.422 122.517 260.372 122.459Z"/>
	<path fill="#F4F2F2" transform="scale(10.3 10.3)" d="M181.184 298.941C183.109 298.413 184.749 298.471 186.718 298.535C181.46 301.376 180.46 304.051 176.755 308.466C179.962 313.004 182.829 317.837 187.552 320.937C185.803 321.046 182.591 321.646 181.069 320.701L180.994 320.358C180.978 320.282 180.959 320.207 180.943 320.131C180.878 319.822 180.905 319.971 180.886 319.674C180.77 317.889 175.942 312.797 174.84 310.994C174.206 310.642 174.145 310.382 173.805 309.757C171.148 306.908 168.499 300.729 164.778 299.476C166.509 299.138 168.06 298.837 169.837 298.745L171.105 298.617C171.395 299.359 170.823 299.762 171.131 300.579C172.049 303.014 174.145 304.959 175.539 307.136C177.602 304.489 179.663 301.949 181.184 298.941Z"/>
	<path fill="#F4F2F2" transform="scale(10.3 10.3)" d="M215.22 298.522C218.06 298.64 220.833 298.173 223.661 298.149C226.12 298.127 228.833 298.483 230.648 300.313C231.803 301.478 232.686 303.317 232.642 304.972C232.58 307.29 230.772 308.807 229.21 310.256C229.274 310.415 229.336 310.575 229.407 310.73C230.901 313.962 233.491 319.158 236.949 320.392L237.215 321.112C236.418 321.232 235.531 321.235 234.74 321.047C230.893 320.137 228.181 314.228 226.277 311.064L222.743 310.524C224.202 310.173 225.643 309.735 227.087 309.324L228.698 307.742Q228.995 306.819 229.218 305.875C229.536 304.47 229.734 302.702 228.858 301.452C227.999 300.226 225.714 299.429 224.293 299.19C223.431 299.044 222.794 299.038 222.075 299.563C221.516 300.793 221.674 317.548 222.13 319.122C222.978 319.982 224.211 320.358 225.305 320.813C222.834 321.039 218.803 321.583 216.467 320.733C216.432 320.3 218.3 319.599 218.587 318.798C219.277 316.879 219.062 301.742 218.175 299.83C217.385 299.094 216.227 298.846 215.22 298.522Z"/>
	<path fill="#F4F2F2" transform="scale(10.3 10.3)" d="M198.879 298.062C202.147 297.872 205.265 297.816 208.185 299.518Q208.672 299.801 209.128 300.132Q209.584 300.462 210.005 300.836Q210.426 301.21 210.808 301.624Q211.19 302.038 211.528 302.488Q211.867 302.938 212.159 303.42Q212.452 303.901 212.694 304.409Q212.937 304.917 213.128 305.447Q213.32 305.977 213.457 306.523Q213.597 307.082 213.682 307.652Q213.766 308.222 213.794 308.797Q213.823 309.373 213.794 309.948Q213.766 310.523 213.681 311.093Q213.596 311.663 213.455 312.222Q213.315 312.781 213.12 313.323Q212.926 313.865 212.679 314.386Q212.432 314.906 212.135 315.4Q211.805 315.931 211.425 316.428Q211.046 316.925 210.62 317.383Q210.194 317.841 209.725 318.256Q209.257 318.67 208.751 319.038Q208.245 319.405 207.706 319.722Q207.167 320.039 206.6 320.303Q206.032 320.566 205.442 320.773Q204.852 320.981 204.245 321.13C200.946 321.589 197.833 321.303 194.887 319.614Q194.396 319.336 193.936 319.01Q193.476 318.684 193.052 318.313Q192.627 317.942 192.242 317.53Q191.857 317.118 191.515 316.669Q191.173 316.221 190.879 315.74Q190.584 315.259 190.34 314.751Q190.095 314.243 189.903 313.713Q189.711 313.183 189.573 312.636C188.797 309.584 189.355 306.187 190.999 303.509C192.773 300.621 195.625 298.825 198.879 298.062ZM199.359 299.037C196.927 299.784 195.069 301.245 193.871 303.52C192.371 306.367 192.223 310.041 193.207 313.079C194.049 315.678 195.813 318.014 198.278 319.256C200.036 320.142 201.823 320.269 203.759 320.172C205.995 319.58 207.852 318.206 209.018 316.185C210.636 313.381 210.817 309.243 209.973 306.171C209.269 303.604 207.663 301.24 205.29 299.956C203.371 298.917 201.495 298.847 199.359 299.037Z"/>
	<path transform="scale(10.3 10.3)" d="M290.421 234.511L290.61 234.726C290.542 234.962 290.552 234.982 290.39 235.219C289.314 236.791 281.488 242.582 279.514 244.069Q278.383 244.928 277.221 245.745Q276.059 246.562 274.869 247.335Q273.678 248.109 272.459 248.839Q271.241 249.569 269.997 250.253Q268.753 250.938 267.484 251.577Q266.216 252.216 264.925 252.808Q263.634 253.399 262.322 253.944Q261.01 254.488 259.679 254.984Q258.349 255.48 257.001 255.927Q255.653 256.374 254.289 256.771Q252.926 257.168 251.548 257.515Q250.171 257.862 248.783 258.159Q247.394 258.456 245.995 258.701Q244.596 258.947 243.189 259.141Q241.782 259.335 240.369 259.478Q238.956 259.62 237.539 259.711C230.174 260.188 222.756 259.803 215.387 259.615C202.15 259.277 188.718 258.888 175.529 260.201C163.543 261.394 151.606 263.906 139.812 266.287C135.711 267.116 131.563 268.801 127.388 269.069C128.323 267.471 137.338 264.132 139.535 263.184C167.258 251.224 187.422 249.868 217.13 251.31C228.058 251.841 239.457 252.831 250.302 251.077C264.785 248.734 278.076 242.224 290.421 234.511Z"/>
	<path transform="scale(10.3 10.3)" d="M162.873 19.6538L163.689 19.8644C163.922 20.5135 163.93 20.7757 163.767 21.4551C162.627 26.1886 160.325 30.2673 160.127 35.2726C160.032 37.6774 159.986 40.1211 160.367 42.5047C161.4 48.9556 165.325 55.6947 169.742 60.4481C179.595 71.0507 189.117 71.6333 202.681 72.1624C201.114 71.0013 199.292 70.1977 197.563 69.3041C194.071 67.4995 190.79 65.4165 188.051 62.5617C183.277 57.5872 180.825 50.4354 181.043 43.5728C181.214 38.1684 183.297 31.3335 187.38 27.5654C188.272 26.7421 190.224 25.3604 191.49 25.5019C191.912 25.5491 191.911 25.6854 192.17 25.9862C192.501 28.3874 189.461 33.2954 188.638 35.7608C188.12 37.3093 187.88 39.0831 187.743 40.7036C187.281 46.1611 189.161 51.1504 192.706 55.3005C199.552 63.3126 210.928 65.4275 220.889 66.1584C220.092 64.3157 219.2 62.5494 218.124 60.8531C216.543 58.3633 208.991 48.997 209.205 46.6933C209.63 46.315 209.754 46.1833 210.321 46.12C217.11 45.3624 233.685 68.4519 239.028 72.707L239.268 72.8958Q240.04 71.7463 240.741 70.5527C244.985 63.2621 243.113 57.8672 241.115 50.4324L241.323 50.1705L241.905 50.1632C243.831 51.1069 245.274 53.0817 246.15 54.9877C249.683 62.6832 248.14 70.0106 245.273 77.559C246.517 79.6045 247.765 81.627 248.796 83.7908C251.008 83.8039 253.328 83.7172 255.502 84.1657C261.41 85.3843 266.519 89.7873 272.487 91.1747C275.932 91.9754 282.338 90.9202 285.096 92.9033C285.173 92.9587 285.248 93.0174 285.32 93.0798C285.921 93.6042 286.22 94.2974 286.231 95.0892C286.252 96.5138 285.417 98.1884 284.437 99.2044C281.838 101.896 273.226 102.787 269.395 104.491C264.763 106.551 260.199 112.022 254.921 111.93C252.548 111.889 251.252 110.768 249.678 109.125C250.328 112.417 250.991 115.586 252.465 118.628C254.535 122.902 258.138 126.554 261.152 130.192C264.452 134.175 267.7 138.205 270.609 142.487C278.841 154.611 277.778 166.271 275.163 179.951C277.635 179.497 280.144 179.096 282.506 178.205C287.242 176.416 292.238 172.998 297.039 170.818C299.703 169.608 302.468 168.815 305.31 169.923C306.843 170.521 308.317 171.659 308.925 173.226C310.598 177.536 306.386 188.433 304.622 192.654C299.121 205.814 290.843 217.484 279.357 226.089C273.758 230.284 267.825 234.043 261.319 236.676C246.801 242.551 231 242.682 215.62 243.323Q205.128 243.789 194.663 244.669C179.123 245.959 163.149 249.328 148.124 253.411C130.641 258.163 113.669 266.871 97.8677 275.581C92.1875 278.712 85.6534 283.261 79.8288 285.67C81.8064 283.484 84.395 281.552 86.6872 279.689Q95.7663 272.263 105.519 265.747C121.477 255.125 138.364 247.654 156.587 241.863C164.214 239.439 171.905 237.256 179.765 235.724C209.808 229.865 238.505 233.397 266.344 217.692C273.53 213.639 280.036 208.874 285.796 202.963C290.752 196.752 295.343 189.313 297.589 181.65C288.31 190.552 278.164 200.075 266.469 205.697C261.531 208.071 255.96 209.407 250.634 207.474C240.303 203.726 238.639 188.439 234.558 179.685C235.013 184.892 235.444 191.287 233.491 196.237C227.442 211.57 188.298 195.496 175.764 201.018C171.593 202.855 170.316 206.759 168.743 210.694C174.584 206.75 177.048 204.94 184.31 204.618C173.043 212.393 165.123 221.364 151.922 226.807C148.31 228.296 144.567 229.582 140.732 230.363C132.929 231.952 124.441 231.871 117.581 236.372C113.523 239.035 110.096 242.578 106.982 246.27C103.848 249.987 94.5961 263.282 91.2624 264.959C89.2488 265.972 87.8202 265.461 85.8032 264.84C80.1562 271.002 74.9073 271.002 67.1317 271.536C69.0008 267.777 71.1798 263.224 74.3903 260.446C76.6234 258.515 79.4856 258.12 82.2083 257.226C86.1765 255.922 89.5992 253.363 92.4055 250.313C97.3015 244.992 101.239 238.374 104.975 232.197C106.711 229.327 108.397 225.531 110.76 223.201C115.081 221.756 119.528 221.136 123.713 219.197C138.283 212.447 134.385 197.68 142.553 186.073C145.57 181.786 149.21 179.724 152.839 176.215L153.071 175.989Q151.267 176.463 149.419 176.721C144.057 177.499 138.374 176.921 133.949 173.547C130.452 170.881 127.883 166.084 127.454 161.694C127.153 158.611 127.629 152.671 129.621 150.248C130.576 150.528 130.926 152.4 131.316 153.3C132.954 157.083 135.475 161.51 138.767 164.033C146.933 170.293 178.465 167.72 188.604 166.263C205.201 163.878 221.151 157.454 233.331 145.671C235.185 143.877 237.136 142.031 238.687 139.963C238.319 136.806 237.404 133.697 236.67 130.607C234.474 121.356 231.653 110.305 234.226 100.881C237.323 99.2407 240.465 97.6653 243.393 95.732C236.008 96.4422 231.945 98.5632 224.02 96.8498C216.25 95.1698 212.529 90.1535 208.472 83.8181C214.197 83.8479 226.104 84.1536 231.234 85.8688C233.943 86.7749 236.202 88.2022 238.544 89.7882C236.381 85.2526 234.749 81.8724 229.907 79.6276C227.791 78.6464 225.416 78.0202 223.082 77.922C219.249 77.7608 215.544 78.5522 211.785 79.1639C203.565 80.5012 195.196 82.4588 186.881 82.9453C177.106 83.5173 167.334 81.9533 158.484 77.661Q157.648 77.2545 156.833 76.807Q156.018 76.3596 155.227 75.8722Q154.435 75.3849 153.669 74.8588Q152.902 74.3328 152.163 73.7694Q151.423 73.206 150.713 72.6066Q150.002 72.0072 149.322 71.3732Q148.642 70.7393 147.995 70.0724Q147.347 69.4055 146.733 68.7073Q146.119 68.0091 145.541 67.2813Q144.963 66.5535 144.421 65.7979Q143.88 65.0423 143.376 64.2608Q142.873 63.4792 142.409 62.6737Q141.945 61.8681 141.522 61.0405Q141.098 60.213 140.716 59.3654Q140.335 58.5178 139.995 57.6523Q139.656 56.7868 139.36 55.9056C137.838 51.4886 135.994 42.0817 138.15 37.851C138.607 36.954 139.311 35.9654 140.3 35.6638C140.576 35.7767 140.672 35.7609 140.838 36.0286C141.704 37.4205 141.204 43.546 141.507 45.5415C142.05 49.118 143.35 52.8184 145.145 55.9538C150.665 65.5971 160.373 71.6218 170.906 74.4496C165.807 68.5429 162.249 66.3743 158.314 59.0304C153.587 50.2095 152.466 40.0811 155.426 30.4765C156.601 26.6646 159.218 21.6118 162.873 19.6538Z"/>
</svg>
